<?xml version="1.0" encoding="utf-8"?>
<!-- Generator: Adobe Illustrator 22.0.0, SVG Export Plug-In . SVG Version: 6.00 Build 0)  -->
<svg version="1.1" id="Camada_1" xmlns="http://www.w3.org/2000/svg" xmlns:xlink="http://www.w3.org/1999/xlink" x="0px" y="0px"
	 viewBox="0 0 1280 1024" style="enable-background:new 0 0 1280 1024;" xml:space="preserve">
<style type="text/css">
	.st0{fill:#800000;stroke:#000000;stroke-width:2;stroke-miterlimit:10;}
	.st1{fill:none;stroke:#000000;stroke-miterlimit:10;}
	.st2{fill:#FFD18A;stroke:#000000;stroke-width:2;stroke-miterlimit:10;}
	.st3{fill:#6B0000;}
	.st4{fill:none;stroke:#000000;stroke-width:2;stroke-miterlimit:10;}
	.st5{fill:none;}
	.st6{fill:#999999;}
	.st7{font-family:'Tangerine-Regular';}
	.st8{font-size:60px;}
	.st9{fill:#997C08;}
	.st10{fill:none;stroke:#AE7418;stroke-miterlimit:10;}
	.st11{fill:#FBFDDD;}
	.st12{fill:#FAFCD4;}
	.st13{fill:#FCFAD4;}
</style>
<polygon class="st0" points="421.2,255 548.5,560.8 597.1,575.6 791.8,466.7 792.2,457.3 601.1,566.4 554.4,553 759.4,437.8 
	629.5,154.5 "/>
<path class="st1" d="M783.9,461.8"/>
<path class="st2" d="M755,438L634.1,164.3l23,12.2l130.4,283.2c0,0,0,0-32.9-19.5L554.4,553l46.7,13.4l160.3-91.5l22.5-13.1"/>
<polyline class="st3" points="792.2,457.1 659.2,170.1 631.2,158 634.1,164.3 657.1,176.5 787.5,459.7 "/>
<line class="st4" x1="577.5" y1="550" x2="745.7" y2="455.3"/>
<line class="st4" x1="604.4" y1="543.8" x2="729.5" y2="472.1"/>
<line class="st4" x1="597.4" y1="555.2" x2="764.3" y2="461.8"/>
<line class="st4" x1="647.5" y1="182.7" x2="692.8" y2="280.6"/>
<line class="st4" x1="770" y1="438" x2="651.9" y2="181.4"/>
<line class="st1" x1="704.2" y1="307.3" x2="740.3" y2="385.1"/>
<line class="st4" x1="551.7" y1="542.4" x2="436.7" y2="259.1"/>
<g>
	<g>
		<path d="M483.1,406.8c-32.6-5.9-60.4-25.1-86.2-44.9c-28.6-21.9-56-45.4-82.1-70.2c-5-4.8-10-10.2-16.5-12.9
			c-6.4-2.7-13.3-2-19.6,0.4c-7.1,2.7-13.3,7.3-19.4,11.8c-7.2,5.4-14.4,10.8-21.6,16.2c-28.5,21.6-56.7,43.6-84.7,66
			c-31.9,25.5-63.4,51.5-94.5,78c-1.1,0.9,0.5,2.5,1.6,1.6c54.1-46,109.3-90.6,165.7-133.7c13.8-10.5,27.3-21.6,41.7-31.3
			c7-4.7,15.2-9.3,24-8.4c9.4,0.9,15.9,8.5,22.4,14.6c24.9,23.5,50.9,45.9,78,66.8c27.1,21,56.2,41.9,90.7,48.2
			C483.9,409.2,484.5,407.1,483.1,406.8L483.1,406.8z"/>
	</g>
</g>
<g>
	<g>
		<path d="M62.9,450.1c-3.7,1.2-5.1,4.6-4.6,8.3c0.7,5.5,5.3,8.2,10.5,8.9c7.7,1,16.3-0.7,24-1.5c8.1-0.9,16.2-2,24.1-3.8
			c17.1-3.8,31.8-11.5,46-21.6c15.6-11.1,31-22.5,46.4-33.8c1.2-0.8,0-2.8-1.1-1.9c-12,8.7-24,17.5-36,26.2
			c-11.6,8.5-23.3,17.3-36.6,22.9s-27.6,8-41.9,9.6c-6.6,0.7-13.3,1.5-20,1.8c-4,0.1-9.3-0.1-11.9-3.8c-1.9-2.7-2.1-8,1.8-9.2
			C64.9,451.8,64.3,449.6,62.9,450.1L62.9,450.1z"/>
	</g>
</g>
<g>
	<g>
		<path d="M108.8,465c8.1,9.9,20.5,14.4,33.1,14.8c8.4,0.3,16.7-1.1,24.9-2.6c7.8-1.5,15.7-2.9,23.4-5.3
			c15.6-4.7,27.9-14.8,40.7-24.5c14.5-11,29-22,43.4-33c1.1-0.9,0-2.8-1.1-1.9c-13.2,10-26.3,20-39.5,30
			c-12.3,9.4-24.4,20.2-39.1,25.6c-14,5.2-30.2,8.3-45,9.3c-14.5,1-29.5-2.2-39.1-13.9C109.5,462.3,107.9,463.9,108.8,465L108.8,465
			z"/>
	</g>
</g>
<g>
	<g>
		<path d="M183.4,473.3c21.7,15.4,50,16.8,75,9.3c28.6-8.5,52.7-27.5,75.8-45.6c1.1-0.9-0.5-2.5-1.6-1.6
			c-22.4,17.6-45.7,35.9-73.3,44.5c-24.8,7.8-53.1,6.8-74.8-8.6C183.3,470.5,182.2,472.4,183.4,473.3L183.4,473.3z"/>
	</g>
</g>
<g>
	<g>
		<path d="M260.2,479.4c14.6,16.2,39.7,16.2,59.1,10.3c23.1-7,42-22.6,60.2-37.9c1.1-0.9-0.5-2.5-1.6-1.6
			c-17,14.2-34.6,28.8-55.8,36.2c-19.4,6.7-45.3,8-60.3-8.6C260.9,476.7,259.3,478.3,260.2,479.4L260.2,479.4z"/>
	</g>
</g>
<g>
	<g>
		<path d="M347.2,476.5c34.1,13.6,68.2-5.7,92.3-29.2c1-1-0.6-2.6-1.6-1.6c-23.6,23-56.7,41.9-90.1,28.6
			C346.5,473.8,345.9,475.9,347.2,476.5L347.2,476.5z"/>
	</g>
</g>
<g>
	<g>
		<path d="M413.6,467.7c8.8,9.2,24.5,9.8,35.8,5.8c14.8-5.2,20.7-21.4,34.7-27.5c1.3-0.6,0.2-2.5-1.1-1.9
			c-12.4,5.5-17.9,18.8-29.6,25.2c-11.1,6.1-28.9,6.6-38.3-3.1C414.2,465,412.6,466.6,413.6,467.7L413.6,467.7z"/>
	</g>
</g>
<g>
	<g>
		<path d="M232.8,345c13.4-8.5,26.8-17.1,40.3-25.6c7.1-4.5,14.5-10.2,23.5-8.5c7.4,1.4,13.7,6.5,19.4,11.1
			c24.9,20.3,49.7,40.7,74.6,61.1c0.7,0.6,1.8-0.4,1.1-1.1c-13.7-11.2-27.4-22.4-41.1-33.7c-12.9-10.6-25.4-21.8-38.9-31.7
			c-4.8-3.6-10.3-6.9-16.4-7.5c-7.1-0.8-13,2.7-18.8,6.3c-14.8,9.3-29.6,18.8-44.4,28.2C231.2,344.2,231.9,345.5,232.8,345
			L232.8,345z"/>
	</g>
</g>
<g>
	<g>
		<path d="M474.5,398.3c-55-32.4-99.5-79.6-145-123.6c-13.9-13.4-27.8-26.9-41.6-40.3c-1-1-2.6,0.6-1.6,1.6c24.8,24,49.6,48,74.4,72
			c22.6,21.8,45.3,43.6,70.1,63c13.6,10.6,27.7,20.5,42.6,29.3C474.6,401,475.8,399,474.5,398.3L474.5,398.3z"/>
	</g>
</g>
<g>
	<g>
		<path d="M289.1,235.4c-21.2-16.3-49.3-7.8-70.3,4c-13.1,7.4-25.5,15.7-38.6,23c-13.3,7.4-26.9,14.2-40.9,20.3
			c-28,12.4-57.2,22.2-87,29.3c-8.4,2-23.5,3.5-24.4,14.9c-0.7,9.3,10.1,14.7,17.5,17c15.5,4.9,33,6.9,49.2,7.6
			c17.2,0.8,34.5-0.8,50.9-6.1c1.4-0.4,0.8-2.6-0.6-2.2c-27.6,8.8-56.9,7.1-84.9,1.6c-8.9-1.7-30.6-4.8-29.8-17.7
			c0.4-6.7,7.5-9.3,13.1-10.7c6.6-1.7,13.4-3.1,20-4.8c51.1-13.3,99.1-34.9,143.9-62.7c23.3-14.4,55.2-31.3,80.8-11.7
			C289.1,238.2,290.2,236.2,289.1,235.4L289.1,235.4z"/>
	</g>
</g>
<g>
	<g>
		<path d="M85.4,351.4c15.3,16.7,37.1,26.1,59.7,25.6c1.4,0,1.5-2.3,0-2.3c-22.1,0.4-43.2-8.7-58.1-25
			C86,348.8,84.4,350.4,85.4,351.4L85.4,351.4z"/>
	</g>
</g>
<g>
	<g>
		<path d="M198.9,277c13.4-8.5,26.8-17.1,40.3-25.6c7.1-4.5,14.5-10.2,23.5-8.5c7.4,1.4,13.7,6.5,19.4,11.1
			c24.9,20.3,49.7,40.7,74.6,61.1c0.7,0.6,1.8-0.4,1.1-1.1c-13.7-11.2-27.4-22.4-41.1-33.7c-12.9-10.6-25.4-21.8-38.9-31.7
			c-4.8-3.6-10.3-6.9-16.4-7.5c-7.1-0.8-13,2.7-18.8,6.3c-14.8,9.3-29.6,18.8-44.4,28.2C197.4,276.2,198.1,277.5,198.9,277
			L198.9,277z"/>
	</g>
</g>
<rect x="454" y="248.3" transform="matrix(0.9992 -4.032611e-02 4.032611e-02 0.9992 -11.5327 22.8711)" class="st5" width="214.3" height="98"/>
<text transform="matrix(0.9063 -0.4226 0.4226 0.9063 525.7816 347.8221)" class="st6 st7 st8">Liesel</text>
<text transform="matrix(0.9063 -0.4226 0.4226 0.9063 525.7816 347.8221)" class="st9 st7 st8">Liesel</text>
<text transform="matrix(0.9063 -0.4226 0.4226 0.9063 525.7816 347.8221)" class="st10 st7 st8">Liesel</text>
<path class="st11" d="M256.7,404.7c-1.9-2.1-5.1-1.7-7.1,0c-17.4,14.4-36.1,27.2-55.9,38.1c-9.5,5.2-19.1,10.4-28.9,14.9
	c-10.7,5-22.4,8.2-34,4.1c-6.1-2.1-8.7,7.5-2.7,9.6c5.5,2,11.1,2.5,16.7,2.2c0.8,0.9,2,1.5,3.4,1.6c30.1,2.2,56.8-13.5,80.8-29.8
	c2.4-1.6,2.7-4.2,1.8-6.3c5.5-3.1,10.8-6.4,15.7-10.2C253.3,423.6,264.8,413.5,256.7,404.7z"/>
<path class="st12" d="M200.9,394.3c-1.5-2.4-5.2-3.8-8.1-1.5l-0.6,0.5c-0.9,0-1.9,0.2-2.8,0.9c-17.7,12.4-34.7,25.2-55,33.2
	c-10.1,4-20.1,7.9-30.2,11.9c-5.2,2-10.4,4.1-15.5,6.1c-3,1.2-6,2.4-9.1,3.1c-2.2,0.1-4.4,0.2-6.5,0.4c-3.9,0.2-5.4,3.5-4.6,6.2
	c-2.6,2.6-1.4,8.5,3.5,8.8c9.7,0.5,19,0.3,27.9-2.9c0.2,0.1,0.5,0.2,0.7,0.2c6.5,1.3,10.8-1.5,16-5c4-0.2,7.9-1.7,11.6-4.1
	c2.1-0.6,4.1-1.4,5.9-2.8c1.3-1,2.5-2.1,3.6-3.3c3.1-1.4,6.3-2.3,9.4-3.6c5.4-2.3,9.3-6.3,13.7-9.9c1-0.7,1.9-1.4,2.9-2.2
	c0.2-0.2,0.4-0.3,0.7-0.5c6.1-4.1,12.6-7.6,18.9-11.3c7.8-4.1,15.6-8.5,21.2-15.4C207.6,399.4,204.4,394.5,200.9,394.3z"/>
<path class="st12" d="M320.3,425.2c-1.8-1.1-4.2-1.3-6.2,0.3c-14.3,11.5-30.3,20.8-46.9,28.5c-8.3,3.9-16.7,7.4-25.3,10.6
	c-7.9,3-18.4,8.7-27,6.8c-6.3-1.4-9,8.3-2.7,9.6c2.2,0.5,4.4,0.6,6.6,0.6c1,1.7,2.9,3,5.4,2.7c19.4-2.6,38.6-3.2,55.3-14.7
	c8.2-5.7,16.2-11.8,24.2-17.7c7.6-5.6,14.7-11.5,20-19.4C326,429.1,323.4,425.8,320.3,425.2z M269,464.2c0.7-0.3,1.5-0.7,2.2-1
	c-4.1,2.5-8.4,4.3-12.8,5.7C261.9,467.3,265.5,465.8,269,464.2z"/>
<path class="st12" d="M367.8,438.2c-1.9-0.6-4-0.4-5.7,0.6c-1.6-0.7-3.5-0.5-5,1.3c-8.7,10.4-21.8,14.6-33.7,20.2
	c-6,2.8-11.5,6.2-17.1,9.9c-6.1,4-12.3,8-19.9,7.8c-6.4-0.2-6.4,9.8,0,10c0.4,0,0.7,0,1.1,0c0.5,1.8,2,3.1,4.5,2.9
	c29.2-3.2,56.4-15.5,77.9-35.4c2-0.5,3.8-2,4-4.7C374.3,445.9,373.1,440,367.8,438.2z M319.2,474.2c0.1,0.2,0.3,0.4,0.4,0.5
	c-0.9,0.3-1.8,0.7-2.8,1C317.6,475.2,318.4,474.7,319.2,474.2z"/>
<path class="st12" d="M427.3,439.3c-3.1-1.7-6.1-0.6-9,0.9c-7.8,4.3-15.2,9.4-22.9,13.9c-7,4-14.8,9.6-22.8,11.4
	c-0.8,0.2-1.5,0.5-2,0.9c-0.7,0-1.5,0.1-2.2,0.1c-6.4,0.1-6.4,10.1,0,10c19-0.2,37.4-7.5,51.2-20.1c4.8-2.3,10-5.6,10.9-9.8
	C431.3,443.7,429.9,440.7,427.3,439.3z"/>
<path class="st12" d="M467.2,438.8c-2.7,1.7-5.4,3.4-7.9,5.3c-2.7,2.2-4.8,5-7.6,7c-2.9,2.1-6.2,3.8-9.3,5.7
	c-2.8,1.7-6.4,4.6-9.9,3.6c-3.6-1-6,1.9-6.2,4.7c-1.5,3-0.1,7.5,4.3,7.4c8.8-0.1,17-3.2,24.5-7.6c3.6-2.1,6.7-4.4,9.1-7.9
	c2.5-3.6,4.5-7,8.1-9.7C477.3,443.7,472.8,435.4,467.2,438.8z"/>
<path class="st11" d="M389.7,382.6c-15.2-12-30.6-23.8-46.2-35.3c-7.7-5.7-15.5-11.4-23.4-17c-7-5-14-10.7-22.7-12.4
	c-1.5-0.3-2.8,0-3.9,0.7c-1.8-0.4-3.6-0.6-5.6-0.6c-5.4,0.1-9.8,2.5-14.1,5.5c-5.1,3.5-10.3,5.8-16.5,6.3c-3.4,0.3-5,3.3-4.8,6
	c-3.4,1.2-6.7,2.6-9.9,4.2c-5.7,2.9-0.7,11.5,5,8.6c20.3-10.2,43.7-10,64.1-0.4c10.1,4.7,19.4,10.9,28.8,16.9
	c10.9,6.9,21.9,13.9,32.8,20.8c0.3,0.2,0.6,0.4,0.9,0.5c3,2.3,6.5,3.9,10.3,4.7C389.2,391.8,394,386,389.7,382.6z M280.4,331
	c0.3-0.2,0.6-0.4,0.8-0.5c0,0.2,0.1,0.4,0.1,0.5C281.1,331,280.7,331,280.4,331z"/>
<path class="st12" d="M296,265.5c-3.4-2.4-7.2-4.2-11.2-5.5h-0.1c-7.9-6.8-18.1-15.1-28.8-13.6c-5.7,0.8-9.5,4.9-14.2,7.7
	c-5.5,3.4-11.5,5.8-17.5,8.1c-2.3,0.9-3.3,2.9-3.4,4.9c-5.8,2.1-11.2,4.8-15.7,9.5c-4.4,4.7,2.6,11.7,7.1,7.1
	c7-7.3,17.3-8.7,26.5-11.9c5.1-1.8,9.5-4.5,14.4-6.6c6.2-2.7,12.5-1.3,18.4,1.5c1.9,0.9,3.8,0.6,5.1-0.4c1.2,1,2.2,2,3.2,2.8
	c1.2,1.1,2.6,1.4,3.9,1.2c2.6,1,5,2.3,7.2,3.9s5.6,0.4,6.8-1.8C299.3,269.8,298.3,267,296,265.5z"/>
<path class="st12" d="M153.7,322.3c-1.8-4-6.4-2.9-8.3,0c-1.1-0.7-2.3-1-3.7-0.4c-24.9,10.2-51.8,7.2-78.2,6.9
	c-7.6-2-15.1-4.4-22.6-6.9c-4.5-1.5-8.9,5.3-4.9,8.4c1.3,1,2.6,2,3.9,2.9c-0.8,2.9,0.8,6.4,4.6,6.1c1.4-0.1,2.9-0.2,4.3-0.3
	c5.3,3,11,5.2,17.5,6.1c12.2,1.7,25,1.6,37.2,1.4C115.9,346.3,164.6,345.8,153.7,322.3z"/>
<path class="st12" d="M178.9,336.6c-1.9,0-3.5,0.8-5,1.8c-0.7-0.1-1.4,0-2.2,0.3c-9.3,3.4-18.7,6.5-28.1,9.3
	c-8.8,2.6-18.9,6.6-28.2,5c-1.8-0.3-3.2,0.2-4.3,1.2c-0.8,0.3-1.5,0.8-2,1.4c-3.5,1.6-4.1,8,0.7,9.5c1.8,0.6,3.6,1.1,5.4,1.5
	c10.6,5.4,23.1,6.7,34.6,3.4c7.5-0.8,11.5-7.3,17.9-10.4c3.9-1.8,7.3-4.3,10.4-7.2c2.7-2.5,6.6-5.7,6.7-9.7
	C184.9,339.3,182.3,336.7,178.9,336.6z"/>
<path class="st12" d="M160.5,395.7c-15.1,9.3-31,17-47.7,23c-6,2.2-3.4,11.8,2.7,9.6c17.5-6.3,34.2-14.2,50-24
	C171,401,166,392.4,160.5,395.7z"/>
<path class="st13" d="M135.5,305.9c-22,7.2-44.3,10.6-67.5,8.9c-6.4-0.5-6.4,9.5,0,10c24,1.7,47.4-1.8,70.2-9.3
	C144.3,313.6,141.7,303.9,135.5,305.9z"/>
<path class="st11" d="M453.3,387l-52.9-37.1c-5.3-3.7-10.3,5-5,8.6c17.6,12.4,35.3,24.7,52.9,37.1
	C453.6,399.3,458.6,390.6,453.3,387z"/>
</svg>
